Coordinates
version=1
nRows=12
nColumns=24
inDegrees=yes

Units are S.I. units (second, meters, Newtons, ...)
Angles are in degrees.

endheader
time	pelvis_tilt	pelvis_list	pelvis_rotation	pelvis_tx	pelvis_ty	pelvis_tz	hip_flexion_r	hip_adduction_r	hip_rotation_r	knee_angle_r	ankle_angle_r	subtalar_angle_r	mtp_angle_r	hip_flexion_l	hip_adduction_l	hip_rotation_l	knee_angle_l	ankle_angle_l	subtalar_angle_l	mtp_angle_l	lumbar_extension	lumbar_bending	lumbar_rotation
      1.69000000	     21.50672550	     -6.59524269	      2.47788317	     -0.08587418	      0.85695539	     -0.01855704	     -5.20072731	      6.84458437	    -17.39128970	    -23.89861342	     30.89417972	      9.61572922	     34.75183425	    -22.23285549	     -4.82364518	    -11.30054522	    -19.08324086	     30.25047694	     10.89041140	     28.74084949	    -36.22129910	      7.21786879	     -9.76444896
      1.69500000	     21.71074411	     -6.77682622	      2.67291106	     -0.07951686	      0.85671322	     -0.01824424	     -5.72219345	      7.35825116	    -17.80021354	    -20.50728567	     30.42606770	     10.23683365	     34.90564050	    -22.94271378	     -5.13972186	    -11.42765839	    -19.06312098	     30.55092015	     11.08873747	     28.68334300	    -36.38357453	      7.48343137	     -9.83555101
      1.70000000	     21.83186824	     -6.97087935	      2.82327235	     -0.07308492	      0.85623433	     -0.01767151	     -6.18363316	      7.92486558	    -18.08133058	    -17.06983713	     29.65687081	     10.58201552	     36.38948397	    -23.50541152	     -5.50925842	    -11.77934529	    -19.23793415	     31.08366739	     11.67318374	     28.28331515	    -36.44989445	      7.71702287	     -9.90364008
      1.70500000	     21.95402824	     -7.06873346	      2.97690368	     -0.06658650	      0.85567162	     -0.01714247	     -6.65854422	      8.38041794	    -18.46425594	    -13.72065942	     28.92742275	     11.20944617	     37.23496834	    -24.10084639	     -5.76124907	    -12.01488307	    -19.32709824	     31.48385082	     12.05545471	     28.10464079	    -36.50285115	      7.86453039	     -9.99554605
      1.71000000	     22.01126933	     -7.08482889	      3.16653876	     -0.06009488	      0.85492727	     -0.01665229	     -7.03562211	      8.74958015	    -18.95856815	    -10.55328467	     28.21306460	     11.88005748	     37.40634576	    -24.60306815	     -5.94013537	    -12.09752138	    -19.42918783	     31.79783517	     12.28682835	     28.10220380	    -36.48101712	      7.95615245	    -10.18493563
      1.71500000	     22.00308860	     -7.06670271	      3.26158545	     -0.05361429	      0.85400952	     -0.01591325	     -7.32046116	      9.08025215	    -19.32635139	     -7.54378515	     27.23379642	     12.43272858	     39.61198717	    -24.98852776	     -6.09052092	    -12.38284717	    -19.70095761	     32.25441888	     12.85723085	     27.78295593	    -36.39573894	      7.94884080	    -10.31300938
      1.72000000	     21.98163736	     -6.97416447	      3.36200475	     -0.04715944	      0.85301205	     -0.01521835	     -7.52993631	      9.31019571	    -19.82152788	     -4.85823706	     26.55262674	     13.27322010	     39.76004760	    -25.35797824	     -6.15062968	    -12.53871789	    -19.94671777	     32.57687285	     13.13601040	     27.80216155	    -36.29762931	      7.87787348	    -10.49544838
      1.72500000	     21.90002597	     -6.86683798	      3.43958883	     -0.04073590	      0.85188462	     -0.01445966	     -7.61432135	      9.50738986	    -20.35527309	     -2.45707501	     25.88332777	     14.18739496	     40.14455511	    -25.62627074	     -6.20537155	    -12.72554528	    -20.28349136	     32.95112740	     13.53347945	     27.81705312	    -36.14300738	      7.77911571	    -10.65827618
      1.73000000	     21.77456674	     -6.74836264	      3.52073032	     -0.03432031	      0.85068225	     -0.01369565	     -7.61461994	      9.68517430	    -20.93696180	     -0.28798512	     25.23361644	     15.13339383	     40.67088138	    -25.81200321	     -6.25841217	    -12.88681814	    -20.69638599	     33.32640908	     13.91060615	     27.82622571	    -35.93938705	      7.67435197	    -10.82671167
      1.73500000	     21.59409442	     -6.63458464	      3.58450970	     -0.02795120	      0.84940681	     -0.01291489	     -7.50600331	      9.84788070	    -21.54595198	      1.62109653	     24.52420671	     16.09120287	     42.11931783	    -25.90235160	     -6.31088520	    -13.02213006	    -21.18797299	     33.64600676	     14.11978234	     27.73525723	    -35.68579303	      7.56921823	    -10.95684097
      1.74000000	     21.42641470	     -6.49918225	      3.66920542	     -0.02162622	      0.84813295	     -0.01209030	     -7.41081150	      9.99518000	    -22.07596591	      3.35774337	     23.93825012	     16.87987457	     42.32337285	    -25.97600849	     -6.37196802	    -13.12867612	    -21.73668464	     34.02851173	     14.54110384	     27.81497261	    -35.45130654	      7.44498690	    -11.13243419
      1.74500000	     21.23811307	     -6.37915790	      3.75091607	     -0.01529546	      0.84685254	     -0.01128599	     -7.25730627	     10.13697538	    -22.68499574	      4.83399110	     23.41428784	     17.87039678	     42.69914576	    -26.00483223	     -6.45087892	    -13.22784453	    -22.33668008	     34.34147749	     14.89311216	     27.90572616	    -35.19592209	      7.33989569	    -11.26351339
